<?xml version="1.0"?>
<svg xmlns="http://www.w3.org/2000/svg" xmlns:xlink="http://www.w3.org/1999/xlink" xmlns:svgjs="http://svgjs.com/svgjs" version="1.1" width="512" height="512" x="0" y="0" viewBox="0 0 24 24" style="enable-background:new 0 0 512 512" xml:space="preserve" class=""><g><path xmlns="http://www.w3.org/2000/svg" d="m19.732 7.797c-.977.976-.977 2.559 0 3.535.977.978 2.558.978 3.535 0 .978-.977.978-2.558 0-3.535-.943-.944-2.591-.944-3.535 0z" fill="#ffffff" data-original="#000000" style="" class=""/><path xmlns="http://www.w3.org/2000/svg" d="m20.347 14.147c-.085-.567-.342-1.082-.744-1.487l-.564-.569c-.393-.397-.902-.632-1.436-.717-.033-.048-.053-.102-.096-.144l-1.414-1.415c-.779-.78-2.049-.78-2.829 0l-2.121 2.121c-.306.305-.494.694-.557 1.114-1.539.624-2.853-.026-3.577-.868-.74-.862-1.2-2.304-.27-3.766.902-1.418 1.063-3.127.44-4.689-.622-1.562-1.915-2.692-3.546-3.1l-2.39-.597c-.534-.134-1.079.192-1.213.727-.134.536.192 1.079.727 1.213l2.39.598c1 .25 1.792.942 2.174 1.899.382.958.283 2.005-.27 2.875-1.251 1.966-1.078 4.377.442 6.144 1.021 1.187 2.419 1.816 3.874 1.816.642 0 1.295-.13 1.931-.382l1.101 1.101c-.001.033-.009.064-.009.097v1.122c0 .313-.12.606-.338.826l-1.456 1.469c-.659.665-.659 1.746 0 2.41l1.677 1.692s.001.001.001.001c.231.234.539.362.867.362h.001c.328 0 .636-.128.867-.362l.67-.676c.474-.478.474-1.255.001-1.733l-.148-.149 1.269-1.28c.499-.503.773-1.171.773-1.882v-1.122c0-.308.124-.608.338-.826l.185-.187.561 2.232c.196.527.64.912 1.187 1.03.546.116 1.105-.049 1.505-.453.417-.421.575-1.037.433-1.511zm-7.044-.051-.745-.745 2.122-2.122.75.75c-.045.039-.095.069-.138.112z" fill="#ffffff" data-original="#000000" style="" class=""/><path xmlns="http://www.w3.org/2000/svg" d="m13.5 1c-.552 0-1 .448-1 1v.5h-.5c-.552 0-1 .448-1 1s.448 1 1 1h.5v.5c0 .552.448 1 1 1s1-.448 1-1v-.5h.5c.552 0 1-.448 1-1s-.448-1-1-1h-.5v-.5c0-.552-.448-1-1-1z" fill="#ffffff" data-original="#000000" style="" class=""/></g></svg>
